<?xml version="1.0" encoding="utf-8"?>
<!-- Generator: Adobe Illustrator 28.3.0, SVG Export Plug-In . SVG Version: 6.00 Build 0)  -->
<svg version="1.1" id="Layer_2_00000134937488092456026070000016536584818328446888_"
	 xmlns="http://www.w3.org/2000/svg" xmlns:xlink="http://www.w3.org/1999/xlink" x="0px" y="0px" viewBox="0 0 888.8 622.2"
	 style="enable-background:new 0 0 888.8 622.2;" xml:space="preserve">
<style type="text/css">
	.st0{fill:#FFFFFF;}
</style>
<g id="Layer_1-2">
	<path class="st0" d="M885.8,518c-10.4-27.4-18.1-55.7-28.6-83c-8.2-21.3-9.9-39.2,2.2-61.3c21.6-39.5,22.4-84.5,19.8-128.5
		c-3.6-59.6-12-119,0.7-178.7c3.9-18.3-12.3-33.3-31.7-32.7c-33.1,1-57.3,16.6-72.8,45.6c-4.6,8.6-7.9,17.9-13.4,30.8
		c-5.6-26.2-17.8-43.6-41.2-50c-23.7-6.5-42.9,2.6-58.7,19.6c-44.3-15.5-61.2-9.8-83.5,24.8c-20.6,4.5-37.9,8.2-57.6,12.5
		c-3.4-20-18.9-39.4-16-64.7c1-8.5-1.3-18.5-5.1-26.3c-9.3-19.3-26.3-28-47.2-25.9c-20.2,2-34.4,13.5-41.4,33.2
		c-7.7,21.6-15.6,43.1-24.2,66.8c-13.9-22.5-31.1-34-55.7-31.7c-21.1,1.9-23.4,1.3-43.2-10.2c-1.6-0.9-3.3-1.6-5-2.3
		c-24.9-10.8-46.2-4.3-64.7,13.6c-43.8-28.7-92-1.2-91,49.7c0.1,6.3-0.9,12.6-1.7,21.8c-5.4-7.1-8.2-11.2-11.5-15
		c-21.9-25.2-48.9-37.4-82.8-32.2c-28,4.3-38.9,22.7-26.6,48c18.1,37,28.1,76.3,34.1,116.7c6.7,45,17.4,88.7,35.5,130.5
		c1.4,3.2-0.4,9.6-3,12.4c-13.2,14.5-27.1,28.5-40.8,42.5c-19.2,19.6-21.1,32.2-8.1,56.2c19.5,36,46.9,65.3,79.4,89.5
		c15.2,11.3,32.3,20.5,49.5,28.7c15.6,7.4,29.6,2.9,41.9-10.1c36.4-38.5,73.4-76.4,110.4-114.4c3.7-3.8,8.6-6.6,13.5-8.7
		c73.7-30.4,116-84.7,125.1-164.1c2.5-22.2,3.1-44.6,5.2-66.9c0.8-8.7,3.4-17.3,5.2-26l20.4-66.4c0.5-3.2,1.4-6.4,2.8-9.6
		c0.4-0.9,0.7-1.9,1-2.8l6.7-21.7c0.9-3.4,1.9-7,3.1-10.8c0,0.1,0.1,0.2,0.1,0.3l17.6-57.1l-17.6,57.1c3,6.6,4.7,9.7,5.8,13
		c11.9,35.1,25.6,69.7,35.1,105.5c11.6,43.8,52.9,62.9,94.6,33c19.6,22.5,42.8,27.6,70.3,16.2c2.9,13.7,5.4,26.9,8.5,40
		c2.5,10.6,8.7,17.9,20.5,14.7c12.1-3.2,12.4-12.6,10-23.1c-13.2-57.4,0-86.6,50.5-116.4c5-3,8.9-12.5,8.8-18.9
		c-0.3-26.6-1-53,8.2-78.5c8.5-23.4,26.8-37.3,44.1-36.2c-0.2,42-1,83.7-0.3,125.5c0.5,31.4,4.2,62.8,3.9,94.2
		c-0.5,43.7-13.2,83.6-43.3,117c-3.8,4.3-5.1,13.7-3.3,19.4c1.2,3.9,10,5.2,15,8.1c3.7,2.1,8.9,4.3,10.1,7.6
		c10.2,28.4,20,57,28.7,85.9c1.4,4.5-1.5,13.5-5.1,15.6c-19.7,11.4-39.3,23.8-60.7,31c-24.4,8.2-50.5,11.4-75.9,16.4
		c-9.3,1.8-14.8-1.8-17.8-11.8c-9-29.2-19.3-58.1-29.3-87.9c15.5-0.9,29.8-1.6,44.2-2.5c11.1-0.7,19-6.1,17.9-17.9
		c-1.2-12.2-10.4-14.6-21.2-13.6c-86,8.3-152-34.5-179.3-115.9c-16.7-49.9-33.3-99.8-50.6-149.5c-3.1-9-4.6-17.4-3.2-26L453,228.4
		c1.4,0.1,2.8,0.2,4.2,0.3c13.6,40.2,27.2,80.5,40.7,120.8c20.4,60.9,59.9,103.5,120.5,126.3c5.8,2.2,11.9,8.5,14,14.4
		c11.4,31.4,21.7,63.2,32.3,94.8c9.3,27.7,17.7,33.9,46.9,33.9c37.3,0.1,72.5-10.5,106-25c19.9-8.6,38.5-20.8,56.2-33.5
		C887.7,550.3,892.6,536,885.8,518L885.8,518z M48.2,482c30.2,3.5,101.1,71.3,111.7,107.1C111.5,563.4,75.7,528.4,48.2,482L48.2,482
		z M472.4,56.6c-9.6,31.5-19.2,63-28.7,94.5c-8.5,28-18.8,55.6-24.6,84.2c-5,24.8-5.1,50.7-7,76.2c-3.9,50.7-25.6,91.7-65.8,122.9
		c-2.2,1.7-4.2,3.5-6.6,4.9c-8.4,4.6-16.8,12.3-25.4,12.5c-7,0.1-14.2-8.8-21.3-13.7c-7.1-4.9-14.1-10.1-21.5-14.7
		c-8.7-5.4-17.3-3.9-22.8,4.5c-5.2,8-2.3,15.9,5.2,21.6c4.7,3.6,9.9,6.6,14.7,10.1c4.4,3.2,8.5,6.6,14,11
		c-31.8,32.9-62.7,64.9-94.6,97.8c-30.4-49.8-69.6-88.2-120.5-116.3c14.4-14.7,27.4-29.4,42-42.3c4.6-4,13.7-4.8,20.4-4.2
		c12.6,1.3,25.1,4.6,37.6,7.2c10,2.2,17.7-0.8,20.3-10.9c2.7-10-2.2-17.9-12.1-19.5c-21-3.4-42.3-5-63.3-8
		c-4.3-0.6-10.8-3.7-11.7-6.9c-10.1-34.5-21.5-68.9-28.2-104.1c-8.6-45.6-18.8-90.3-38-132.7c-0.5-1.1-0.4-2.6-0.6-3.9
		c23.4-6.2,47.2,2.1,60.4,26.2c11.1,20.1,19,42.6,24.6,64.9c2.2,8.9-3.9,21.2-9.1,30.3c-5.5,9.7-6.1,17.3,2.4,24
		c8.6,6.7,16.4,2.8,22.7-4.5c13.2-15.4,16.3-34.6,17.9-53.7c2.7-30.9,4.4-61.9,6.6-92.9c0.3-4.5,0.4-9.2,1.4-13.6
		c2.7-11.9,12.8-19.2,24-18c11.2,1.2,21.1,10.7,20.4,22.1c-0.5,8.3-3.5,16.8-7,24.5c-4.2,9.2-4.4,17.1,4.6,22.7
		c9.1,5.6,17.9,2.3,22.1-6.2c5.4-10.8,8.6-22.8,11.9-34.5c1.7-6.1,0.6-12.9,2.3-18.9c3.3-11.4,11.2-17.5,23.6-16.1
		c11.7,1.3,21.3,10.4,20.1,21.7c-1.2,12.4-3.8,25.1-8.2,36.7c-3.7,9.8-3.2,17.3,5.2,22.6c8.8,5.6,17.8,2.7,22.1-6.2
		c5.1-10.5,9.2-21.8,11.5-33.3c3.4-17,11.4-26,25.1-24.7c13.7,1.3,21.6,12.3,20.6,28.7c-1,16.9-1.1,33.9-3.8,50.5
		c-1.5,9.7-6.3,19.2-11.5,27.8c-4.9,8.1-4.9,16.2,1.3,20.9c4.5,3.5,16,5,19.2,2c8.5-8.3,16.4-18.6,20.5-29.6
		c18-47.4,34.6-95.4,51.8-143.1c1.4-3.9,3-7.7,4.3-11.5c3.6-10.8,11-16.3,21.9-12.5C474.2,36.8,475.6,46.1,472.4,56.6L472.4,56.6z
		 M590.2,251.4c-11.3,3.8-23.7-2.1-28.7-14.6c-4.4-11-7.7-22.4-11.5-33.6c0,0-0.1,0-0.1,0c-3.6-10.8-7.7-21.5-10.8-32.4
		c-4-13.9,1.7-26,13.6-30.4c11.6-4.4,24.6,1.5,29.6,15c8.2,22.2,15.8,44.7,22.7,67.4C608.7,235,601.4,247.6,590.2,251.4L590.2,251.4
		z M674.7,258c-13.3,4.8-25.6-2.2-31.2-18.5c-11.6-33.7-22.9-67.5-34.2-101.3c-5.4-16.4-0.1-29.5,13.2-34c13.1-4.4,25,3,30.8,19.6
		c5.9,16.8,11.4,33.8,17.1,50.7c5.7,16.9,11.5,33.7,17,50.7C692.5,240.7,687.5,253.3,674.7,258L674.7,258z M731.6,185.1
		c-12.1,4.6-24.5-0.9-29.8-14.6c-6.3-16.2-11.9-32.7-16.8-49.4c-4-13.8,2.4-26.5,14-30.5c11.9-4.1,24.8,3,30.2,17
		c3,7.7,5.3,15.6,7.9,23.4c0,0,0,0,0.1,0c2.6,7.8,5.6,15.5,7.8,23.4C749,168.6,743.5,180.6,731.6,185.1L731.6,185.1z"/>
</g>
</svg>
