<?xml version="1.0" encoding="UTF-8"?><svg id="Layer_2" xmlns="http://www.w3.org/2000/svg" viewBox="0 0 888.85 622.15"><g id="Layer_1-2"><path d="m885.8,517.96c-10.36-27.36-18.13-55.72-28.64-83.02-8.18-21.26-9.87-39.19,2.21-61.3,21.6-39.51,22.43-84.49,19.77-128.46-3.6-59.63-11.96-118.97.71-178.68,3.88-18.31-12.35-33.31-31.66-32.71-33.06,1.01-57.3,16.63-72.76,45.63-4.59,8.62-7.88,17.93-13.42,30.77-5.64-26.19-17.83-43.58-41.23-49.95-23.72-6.45-42.88,2.6-58.68,19.65-44.31-15.48-61.15-9.77-83.46,24.82-20.63,4.48-37.92,8.24-57.6,12.51-3.37-19.99-18.91-39.39-16.03-64.68.97-8.53-1.3-18.45-5.08-26.29-9.29-19.3-26.33-28.03-47.23-25.93-20.21,2.03-34.39,13.54-41.38,33.21-7.68,21.62-15.6,43.14-24.16,66.78-13.91-22.48-31.14-33.96-55.73-31.72-21.12,1.93-23.39,1.31-43.19-10.2-1.57-.91-3.3-1.56-4.98-2.29-24.85-10.81-46.21-4.35-64.67,13.65-43.8-28.66-92.02-1.21-91.02,49.69.12,6.28-.94,12.59-1.69,21.83-5.41-7.06-8.25-11.21-11.52-14.97-21.93-25.22-48.89-37.42-82.78-32.17-27.99,4.34-38.89,22.72-26.56,47.96,18.09,37.04,28.08,76.33,34.12,116.68,6.74,44.97,17.36,88.7,35.52,130.54,1.39,3.2-.41,9.58-2.99,12.42-13.2,14.54-27.07,28.46-40.83,42.48-19.22,19.58-21.14,32.19-8.11,56.22,19.51,35.98,46.88,65.27,79.39,89.46,15.21,11.32,32.29,20.54,49.48,28.69,15.62,7.4,29.62,2.88,41.91-10.11,36.41-38.49,73.42-76.43,110.43-114.35,3.66-3.75,8.64-6.65,13.54-8.67,73.72-30.37,116.03-84.74,125.1-164.15,2.54-22.21,3.07-44.64,5.17-66.92.82-8.74,3.42-17.32,5.21-25.97l20.42-66.37c.53-3.16,1.39-6.35,2.78-9.63.39-.91.69-1.87,1.04-2.8l6.68-21.72c.93-3.4,1.94-6.97,3.09-10.85.05.12.09.2.15.32l17.57-57.11-17.57,57.11c2.96,6.56,4.66,9.71,5.78,13,11.9,35.09,25.57,69.72,35.06,105.46,11.64,43.82,52.89,62.89,94.61,33.03,19.61,22.49,42.79,27.57,70.31,16.22,2.87,13.71,5.39,26.92,8.45,40.01,2.48,10.62,8.65,17.89,20.47,14.71,12.07-3.24,12.39-12.63,9.98-23.15-13.15-57.43.01-86.56,50.52-116.39,5.05-2.99,8.87-12.51,8.8-18.94-.32-26.58-1.01-53,8.25-78.51,8.47-23.36,26.79-37.33,44.14-36.16-.17,41.97-.95,83.73-.32,125.47.48,31.42,4.25,62.83,3.89,94.21-.5,43.7-13.16,83.57-43.26,116.97-3.85,4.28-5.07,13.66-3.29,19.35,1.21,3.86,9.95,5.16,15.05,8.06,3.69,2.1,8.9,4.27,10.09,7.6,10.15,28.43,19.95,57.01,28.71,85.89,1.36,4.47-1.45,13.51-5.12,15.64-19.66,11.4-39.33,23.85-60.65,31.01-24.39,8.19-50.48,11.39-75.9,16.38-9.33,1.83-14.76-1.79-17.85-11.83-9-29.24-19.26-58.09-29.29-87.86,15.45-.87,29.84-1.56,44.22-2.53,11.09-.74,19.02-6.12,17.9-17.94-1.15-12.2-10.37-14.62-21.24-13.58-85.99,8.28-152.03-34.51-179.3-115.9-16.71-49.88-33.33-99.8-50.6-149.49-3.12-8.97-4.61-17.35-3.16-26.04l-20.42,66.37c1.4.1,2.79.21,4.19.31,13.56,40.25,27.16,80.49,40.66,120.77,20.43,60.93,59.88,103.46,120.45,126.29,5.76,2.17,11.87,8.55,13.99,14.37,11.44,31.36,21.66,63.18,32.34,94.82,9.34,27.68,17.69,33.88,46.93,33.94,37.29.08,72.45-10.48,106.05-25.03,19.87-8.61,38.49-20.82,56.17-33.51,14.01-10.05,18.89-24.42,12.07-42.42ZM48.23,482.04c30.23,3.46,101.11,71.28,111.7,107.11-48.4-25.71-84.27-60.72-111.7-107.11ZM472.37,56.57c-9.61,31.47-19.16,62.96-28.67,94.46-8.45,28-18.81,55.62-24.61,84.17-5.05,24.83-5.08,50.71-7.02,76.15-3.88,50.69-25.64,91.73-65.8,122.95-2.16,1.68-4.25,3.54-6.63,4.85-8.39,4.61-16.83,12.31-25.37,12.46-7.01.12-14.18-8.83-21.29-13.74-7.14-4.93-14.13-10.13-21.51-14.68-8.74-5.4-17.31-3.91-22.75,4.51-5.2,8.04-2.3,15.88,5.2,21.59,4.72,3.59,9.89,6.57,14.69,10.06,4.35,3.16,8.46,6.64,14.02,11.04-31.8,32.9-62.71,64.86-94.58,97.83-30.35-49.78-69.61-88.18-120.5-116.33,14.37-14.74,27.36-29.42,41.97-42.26,4.59-4.04,13.69-4.83,20.43-4.16,12.64,1.27,25.1,4.56,37.58,7.25,10.01,2.16,17.66-.79,20.34-10.88,2.66-10.02-2.17-17.9-12.13-19.49-21-3.37-42.28-4.99-63.34-8.05-4.29-.62-10.79-3.66-11.74-6.91-10.1-34.51-21.52-68.87-28.15-104.11-8.57-45.58-18.77-90.32-38.01-132.68-.52-1.15-.39-2.59-.57-3.88,23.36-6.22,47.17,2.14,60.4,26.18,11.08,20.13,18.99,42.55,24.6,64.88,2.23,8.9-3.93,21.2-9.13,30.32-5.53,9.69-6.14,17.26,2.43,23.95,8.62,6.72,16.42,2.83,22.7-4.47,13.25-15.41,16.26-34.56,17.95-53.71,2.73-30.91,4.4-61.91,6.57-92.87.32-4.54.4-9.17,1.4-13.57,2.69-11.86,12.8-19.23,23.98-17.98,11.17,1.24,21.1,10.72,20.39,22.07-.52,8.31-3.51,16.81-6.99,24.51-4.17,9.23-4.38,17.08,4.59,22.66,9.08,5.64,17.89,2.31,22.12-6.25,5.35-10.83,8.59-22.79,11.87-34.51,1.69-6.05.57-12.88,2.31-18.91,3.29-11.44,11.23-17.47,23.62-16.12,11.69,1.27,21.26,10.37,20.12,21.73-1.25,12.42-3.79,25.06-8.18,36.7-3.7,9.79-3.22,17.31,5.25,22.65,8.83,5.57,17.8,2.7,22.15-6.16,5.15-10.47,9.22-21.84,11.48-33.27,3.37-17.03,11.38-26.04,25.09-24.71,13.68,1.32,21.6,12.26,20.58,28.68-1.04,16.85-1.12,33.86-3.78,50.46-1.55,9.66-6.34,19.25-11.51,27.76-4.92,8.1-4.89,16.18,1.32,20.95,4.55,3.5,16.05,5,19.16,1.97,8.48-8.28,16.37-18.59,20.55-29.59,18.02-47.43,34.62-95.39,51.75-143.15,1.39-3.87,3.04-7.65,4.34-11.54,3.6-10.81,10.96-16.28,21.94-12.46,11.22,3.9,12.61,13.18,9.4,23.69Zm117.86,194.8c-11.28,3.75-23.66-2.09-28.73-14.62-4.44-10.97-7.7-22.41-11.48-33.64-.04.01-.09.03-.13.04-3.64-10.8-7.67-21.49-10.81-32.43-3.99-13.9,1.7-25.96,13.59-30.43,11.59-4.35,24.64,1.46,29.64,14.96,8.23,22.21,15.77,44.72,22.66,67.38,3.75,12.33-3.55,25.01-14.74,28.72Zm84.44,6.61c-13.3,4.83-25.6-2.22-31.2-18.54-11.56-33.72-22.93-67.5-34.15-101.33-5.43-16.37-.13-29.5,13.18-33.97,13.09-4.39,24.98,3,30.77,19.56,5.88,16.82,11.42,33.76,17.11,50.65,5.72,16.88,11.55,33.72,17.05,50.67,5.11,15.71.09,28.28-12.76,32.95Zm56.89-72.85c-12.09,4.56-24.45-.88-29.75-14.55-6.28-16.19-11.87-32.7-16.77-49.37-4.05-13.8,2.39-26.52,13.97-30.47,11.89-4.06,24.78,3.04,30.17,17.02,2.96,7.68,5.32,15.59,7.94,23.39.03,0,.05-.02.08-.03,2.63,7.8,5.57,15.52,7.82,23.43,3.98,14.04-1.49,26.07-13.46,30.58Z"/></g></svg>